<?xml version="1.0" standalone="no"?>
<!DOCTYPE svg PUBLIC "-//W3C//DTD SVG 20010904//EN"
 "http://www.w3.org/TR/2001/REC-SVG-20010904/DTD/svg10.dtd">
<svg version="1.0" xmlns="http://www.w3.org/2000/svg"
 width="500.000000pt" height="500.000000pt" viewBox="0 0 500.000000 500.000000"
 preserveAspectRatio="xMidYMid meet">

<g transform="translate(0.000000,500.000000) scale(0.100000,-0.100000)"
fill="#000000" stroke="none">
<path d="M1788 3827 c-64 -51 -78 -67 -78 -90 0 -20 8 -32 33 -47 48 -28 57
-38 57 -64 0 -30 -29 -56 -63 -56 -34 0 -42 15 -23 45 20 30 20 45 2 45 -29 0
-123 49 -154 81 -24 24 -32 28 -32 16 0 -29 -38 -20 -55 13 -9 17 -21 30 -27
30 -26 0 -104 -97 -126 -155 -28 -77 -48 -229 -34 -259 6 -11 22 -61 37 -111
15 -49 36 -107 47 -129 17 -32 18 -45 10 -80 -6 -22 -14 -92 -18 -153 -6 -110
-6 -113 14 -113 20 0 20 -1 5 -40 -9 -22 -20 -37 -24 -34 -5 3 -9 -8 -9 -24 0
-16 -75 -227 -166 -468 -92 -242 -169 -447 -171 -456 -4 -14 1 -18 18 -18 22
0 29 15 75 138 l51 137 121 3 121 3 -53 -138 c-50 -129 -52 -138 -33 -141 10
-2 23 0 27 5 4 4 52 125 105 268 54 143 101 267 106 275 5 9 9 -17 9 -66 0
-65 3 -84 18 -97 24 -22 70 -22 94 0 29 26 77 21 105 -11 12 -15 23 -33 23
-41 0 -30 -24 -64 -53 -76 -26 -11 -35 -10 -68 9 -46 27 -80 28 -102 4 -14
-15 -17 -42 -17 -155 l0 -137 85 0 85 0 0 -320 0 -320 129 0 128 0 6 -47 c4
-27 9 -94 13 -151 7 -98 8 -104 32 -113 18 -7 32 -5 57 11 48 30 58 70 17 70
-15 0 -17 15 -15 147 2 191 13 324 24 295 13 -34 13 -94 0 -126 -10 -25 -9
-34 7 -55 19 -26 23 -58 39 -270 l6 -83 36 6 c66 10 116 67 72 81 -24 7 -25
25 -14 163 l6 82 73 0 74 0 0 140 c0 139 0 140 26 157 25 16 28 16 68 -5 76
-40 136 -18 136 51 0 68 -64 97 -125 57 -38 -25 -56 -25 -89 1 -24 19 -26 27
-26 89 0 59 -2 68 -16 63 -11 -4 -33 12 -69 51 -29 31 -56 56 -58 56 -16 0
-28 -78 -22 -136 3 -35 4 -73 0 -85 -11 -34 -64 -49 -174 -49 -117 0 -108 -12
-117 160 -4 65 -12 118 -18 122 -6 4 -39 8 -74 8 -61 0 -63 1 -57 23 8 27 147
160 195 186 19 11 46 31 59 45 14 14 34 26 45 26 15 0 17 3 8 12 -17 17 -15
31 3 24 11 -4 15 2 15 23 0 16 7 34 15 41 18 15 19 14 32 -26 18 -52 -3 -119
-33 -107 -17 6 -19 -11 -1 -25 7 -6 35 -16 62 -23 74 -18 80 -23 135 -104 32
-47 57 -75 69 -75 27 0 141 77 182 124 35 39 37 40 36 16 0 -14 3 -32 7 -40 6
-14 -44 -90 -97 -148 l-20 -22 551 0 552 0 0 320 c0 265 2 320 14 320 18 0
146 204 146 233 0 35 -30 57 -77 57 -79 0 -117 87 -59 137 45 38 81 27 122
-38 26 -42 56 -59 87 -51 14 4 17 11 12 33 -6 25 -3 29 14 29 20 0 42 27 105
128 l26 42 -114 75 c-63 41 -117 83 -121 94 -9 29 11 61 50 77 76 31 75 125
-1 148 -50 15 -94 -32 -94 -99 0 -36 -28 -65 -62 -65 -10 0 -61 28 -115 63
-54 35 -103 66 -110 70 -12 8 -153 -206 -153 -233 0 -45 66 -71 173 -70 46 1
56 -19 31 -59 -29 -45 -80 -82 -113 -83 -37 -1 -58 15 -76 58 -15 37 -47 58
-76 49 -16 -6 -141 -182 -156 -222 -3 -7 26 -33 70 -61 59 -37 74 -51 66 -62
-14 -24 -10 -63 11 -90 27 -35 26 -76 -4 -95 -19 -13 -49 -15 -152 -13 l-129
3 -3 343 -2 342 -482 -2 -483 -3 -14 -30 c-13 -26 -12 -33 7 -67 12 -20 22
-47 22 -60 0 -58 -68 -95 -116 -63 -40 26 -48 61 -24 107 26 50 26 94 1 108
-11 5 -56 10 -100 10 l-81 0 0 35 c0 43 -16 76 -87 177 -42 60 -54 84 -51 108
3 28 12 19 132 -135 84 -107 133 -162 140 -157 124 94 157 126 154 151 -2 19
-14 32 -43 47 -29 15 -41 27 -43 47 -5 43 14 67 53 67 39 0 65 -28 65 -71 0
-32 23 -53 48 -47 22 6 171 119 172 131 0 4 -27 42 -60 84 -82 103 -80 128 13
148 57 12 59 97 3 111 -34 8 -63 -11 -81 -51 -11 -29 -19 -35 -43 -35 -24 0
-39 13 -92 80 -35 44 -66 80 -69 79 -3 0 -41 -28 -83 -62z m-228 -181 c0 -3
-4 -8 -10 -11 -5 -3 -10 -1 -10 4 0 6 5 11 10 11 6 0 10 -2 10 -4z m90 -136
c13 -25 90 -70 118 -70 13 0 22 -6 22 -15 0 -8 9 -15 20 -15 11 0 20 -7 20
-15 0 -31 -56 -16 -136 36 -100 66 -100 65 -84 84 17 20 27 19 40 -5z m-91
-477 l1 -133 -35 0 c-19 0 -35 2 -35 5 0 2 11 35 25 72 26 68 26 93 3 93 -9 0
-19 30 -29 84 l-15 85 42 -37 42 -37 1 -132z m1 -248 l0 -85 -53 0 c-29 0 -61
6 -70 13 -16 11 -16 17 9 85 l27 72 43 0 44 0 0 -85z m0 -210 l0 -85 -115 0
-115 0 26 68 c14 37 28 75 31 85 5 14 18 17 89 17 l84 0 0 -85z m1975 -136 c5
-5 -30 -9 -87 -9 -89 0 -98 2 -112 22 -20 28 -20 58 -1 86 l16 22 87 -56 c48
-31 91 -60 97 -65z m-1985 7 c0 -2 -14 -41 -31 -85 l-31 -81 -119 0 -119 0 26
68 c14 37 28 75 31 85 5 15 20 17 124 17 66 0 119 -2 119 -4z m-81 -208 c0 -7
-13 -44 -28 -83 l-27 -70 -117 -3 c-73 -2 -117 1 -117 7 0 6 9 34 21 63 12 29
25 63 30 76 8 21 13 22 124 22 86 0 115 -3 114 -12z"/>
<path d="M3916 3277 c-26 -19 -13 -57 20 -57 13 0 37 -12 53 -28 23 -21 28
-34 24 -55 -3 -16 -1 -27 6 -27 6 0 11 6 11 13 0 7 14 23 30 37 17 14 30 31
30 38 0 19 -51 61 -75 62 -11 0 -29 7 -39 15 -24 18 -37 19 -60 2z"/>
<path d="M3806 2591 c-15 -89 -1 -592 17 -607 1 -1 21 -5 43 -9 l41 -6 13 146
c7 80 14 144 16 143 2 -2 10 -70 18 -152 8 -81 16 -149 18 -151 2 -2 21 0 43
4 38 6 40 8 47 51 4 25 11 163 14 308 l7 263 -26 -6 c-35 -9 -164 12 -208 34
l-37 17 -6 -35z"/>
<path d="M3883 1875 c-19 -21 -82 -30 -117 -17 -28 10 -29 10 -12 -3 11 -8 35
-15 53 -15 37 0 93 24 93 40 0 13 -2 12 -17 -5z"/>
<path d="M4050 1863 c0 -22 -92 -45 -127 -32 -13 5 -22 5 -19 0 10 -16 56 -22
95 -11 39 10 69 35 57 47 -3 3 -6 2 -6 -4z"/>
</g>
</svg>
